<svg xmlns="http://www.w3.org/2000/svg" width="32" height="32" viewBox="0 0 32 32" fill="none">
  <defs>
    <linearGradient id="bg" x1="0" y1="0" x2="32" y2="32" gradientUnits="userSpaceOnUse">
      <stop offset="0%" stop-color="#0ea5e9"/>
      <stop offset="100%" stop-color="#6366f1"/>
    </linearGradient>
    <linearGradient id="glow" x1="8" y1="8" x2="24" y2="24" gradientUnits="userSpaceOnUse">
      <stop offset="0%" stop-color="#38bdf8"/>
      <stop offset="100%" stop-color="#818cf8"/>
    </linearGradient>
  </defs>
  <!-- Rounded square background -->
  <rect width="32" height="32" rx="8" fill="url(#bg)"/>
  <!-- Neural network / AI brain nodes -->
  <circle cx="10" cy="10" r="2.2" fill="url(#glow)" opacity="0.9"/>
  <circle cx="22" cy="10" r="2.2" fill="url(#glow)" opacity="0.9"/>
  <circle cx="16" cy="16" r="2.8" fill="#fff"/>
  <circle cx="10" cy="22" r="2.2" fill="url(#glow)" opacity="0.9"/>
  <circle cx="22" cy="22" r="2.2" fill="url(#glow)" opacity="0.9"/>
  <!-- Connection lines -->
  <line x1="10" y1="10" x2="16" y2="16" stroke="#fff" stroke-width="1.2" opacity="0.6"/>
  <line x1="22" y1="10" x2="16" y2="16" stroke="#fff" stroke-width="1.2" opacity="0.6"/>
  <line x1="10" y1="22" x2="16" y2="16" stroke="#fff" stroke-width="1.2" opacity="0.6"/>
  <line x1="22" y1="22" x2="16" y2="16" stroke="#fff" stroke-width="1.2" opacity="0.6"/>
  <line x1="10" y1="10" x2="22" y2="10" stroke="#fff" stroke-width="0.8" opacity="0.3"/>
  <line x1="10" y1="22" x2="22" y2="22" stroke="#fff" stroke-width="0.8" opacity="0.3"/>
  <line x1="10" y1="10" x2="10" y2="22" stroke="#fff" stroke-width="0.8" opacity="0.3"/>
  <line x1="22" y1="10" x2="22" y2="22" stroke="#fff" stroke-width="0.8" opacity="0.3"/>
  <!-- Center glow ring -->
  <circle cx="16" cy="16" r="4.5" fill="none" stroke="#fff" stroke-width="0.6" opacity="0.25"/>
</svg>
